<mxfile host="app.diagrams.net" modified="2021-08-28T09:09:38.113Z" agent="5.0 (Windows NT 10.0; Win64; x64) AppleWebKit/537.36 (KHTML, like Gecko) Chrome/92.0.4515.159 Safari/537.36" etag="qf2CQvdU_6nJPTExBObS" version="15.0.2" type="github">
  <diagram id="R2lEEEUBdFMjLlhIrx00" name="Page-1">
    <mxGraphModel dx="1422" dy="832" grid="1" gridSize="10" guides="1" tooltips="1" connect="1" arrows="1" fold="1" page="1" pageScale="1" pageWidth="1169" pageHeight="827" math="0" shadow="0" extFonts="Permanent Marker^https://fonts.googleapis.com/css?family=Permanent+Marker">
      <root>
        <mxCell id="0" />
        <mxCell id="1" parent="0" />
        <mxCell id="dFO8RleyW5rbLTaIUvb4-1" value="&lt;span style=&quot;font-size: 18px&quot;&gt;BRANCH&lt;/span&gt;" style="rounded=0;whiteSpace=wrap;html=1;" vertex="1" parent="1">
          <mxGeometry x="243.75" y="194" width="120" height="60" as="geometry" />
        </mxCell>
        <mxCell id="dFO8RleyW5rbLTaIUvb4-2" value="&lt;font style=&quot;font-size: 18px&quot;&gt;&lt;u&gt;ID&lt;/u&gt;&lt;/font&gt;" style="ellipse;whiteSpace=wrap;html=1;" vertex="1" parent="1">
          <mxGeometry x="50" y="290" width="120" height="80" as="geometry" />
        </mxCell>
        <mxCell id="dFO8RleyW5rbLTaIUvb4-3" value="&lt;font style=&quot;font-size: 18px&quot;&gt;HAVE&lt;/font&gt;" style="rhombus;whiteSpace=wrap;html=1;" vertex="1" parent="1">
          <mxGeometry x="430" y="176" width="160" height="96" as="geometry" />
        </mxCell>
        <mxCell id="dFO8RleyW5rbLTaIUvb4-4" value="&lt;font style=&quot;font-size: 18px&quot;&gt;&lt;u&gt;Name&lt;/u&gt;&lt;/font&gt;" style="ellipse;whiteSpace=wrap;html=1;" vertex="1" parent="1">
          <mxGeometry x="205" y="290" width="120" height="80" as="geometry" />
        </mxCell>
        <mxCell id="dFO8RleyW5rbLTaIUvb4-5" value="&lt;font style=&quot;font-size: 18px&quot;&gt;Address&lt;/font&gt;" style="ellipse;whiteSpace=wrap;html=1;" vertex="1" parent="1">
          <mxGeometry x="350" y="290" width="120" height="80" as="geometry" />
        </mxCell>
        <mxCell id="dFO8RleyW5rbLTaIUvb4-6" value="&lt;span style=&quot;font-size: 18px&quot;&gt;BOOK&lt;/span&gt;" style="rounded=0;whiteSpace=wrap;html=1;" vertex="1" parent="1">
          <mxGeometry x="660" y="194" width="120" height="60" as="geometry" />
        </mxCell>
        <mxCell id="dFO8RleyW5rbLTaIUvb4-7" value="&lt;font style=&quot;font-size: 18px&quot;&gt;&lt;u&gt;ID&lt;/u&gt;&lt;/font&gt;" style="ellipse;whiteSpace=wrap;html=1;" vertex="1" parent="1">
          <mxGeometry x="830" y="64" width="120" height="80" as="geometry" />
        </mxCell>
        <mxCell id="dFO8RleyW5rbLTaIUvb4-8" value="&lt;font style=&quot;font-size: 18px&quot;&gt;Title&lt;/font&gt;" style="ellipse;whiteSpace=wrap;html=1;" vertex="1" parent="1">
          <mxGeometry x="830" y="154" width="120" height="80" as="geometry" />
        </mxCell>
        <mxCell id="dFO8RleyW5rbLTaIUvb4-9" value="&lt;font style=&quot;font-size: 18px&quot;&gt;Publisher&lt;/font&gt;" style="ellipse;whiteSpace=wrap;html=1;" vertex="1" parent="1">
          <mxGeometry x="830" y="244" width="120" height="80" as="geometry" />
        </mxCell>
        <mxCell id="dFO8RleyW5rbLTaIUvb4-10" value="&lt;font style=&quot;font-size: 18px&quot;&gt;Publication_year&lt;/font&gt;" style="ellipse;whiteSpace=wrap;html=1;" vertex="1" parent="1">
          <mxGeometry x="830" y="334" width="140" height="80" as="geometry" />
        </mxCell>
        <mxCell id="dFO8RleyW5rbLTaIUvb4-11" value="&lt;span style=&quot;font-size: 18px&quot;&gt;AUTHOR&lt;/span&gt;" style="rounded=0;whiteSpace=wrap;html=1;" vertex="1" parent="1">
          <mxGeometry x="245" y="84" width="120" height="60" as="geometry" />
        </mxCell>
        <mxCell id="dFO8RleyW5rbLTaIUvb4-12" value="&lt;font style=&quot;font-size: 18px&quot;&gt;Name&lt;/font&gt;" style="ellipse;whiteSpace=wrap;html=1;" vertex="1" parent="1">
          <mxGeometry x="85" y="74" width="120" height="80" as="geometry" />
        </mxCell>
        <mxCell id="dFO8RleyW5rbLTaIUvb4-13" value="&lt;span style=&quot;font-size: 18px&quot;&gt;COPY&lt;/span&gt;" style="shape=ext;margin=3;double=1;whiteSpace=wrap;html=1;align=center;" vertex="1" parent="1">
          <mxGeometry x="660" y="440" width="120" height="50" as="geometry" />
        </mxCell>
        <mxCell id="dFO8RleyW5rbLTaIUvb4-15" value="" style="endArrow=none;html=1;entryX=0.5;entryY=0;entryDx=0;entryDy=0;exitX=0.5;exitY=1;exitDx=0;exitDy=0;" edge="1" parent="1" source="dFO8RleyW5rbLTaIUvb4-13" target="dFO8RleyW5rbLTaIUvb4-41">
          <mxGeometry width="50" height="50" relative="1" as="geometry">
            <mxPoint x="700" y="406" as="sourcePoint" />
            <mxPoint x="720" y="530" as="targetPoint" />
          </mxGeometry>
        </mxCell>
        <mxCell id="dFO8RleyW5rbLTaIUvb4-16" value="" style="endArrow=none;html=1;entryX=0;entryY=0.5;entryDx=0;entryDy=0;exitX=1;exitY=0.5;exitDx=0;exitDy=0;" edge="1" parent="1" source="dFO8RleyW5rbLTaIUvb4-6" target="dFO8RleyW5rbLTaIUvb4-8">
          <mxGeometry width="50" height="50" relative="1" as="geometry">
            <mxPoint x="760" y="264" as="sourcePoint" />
            <mxPoint x="810" y="534" as="targetPoint" />
          </mxGeometry>
        </mxCell>
        <mxCell id="dFO8RleyW5rbLTaIUvb4-17" value="" style="endArrow=none;html=1;entryX=0;entryY=0.5;entryDx=0;entryDy=0;exitX=1;exitY=0.5;exitDx=0;exitDy=0;" edge="1" parent="1" source="dFO8RleyW5rbLTaIUvb4-6" target="dFO8RleyW5rbLTaIUvb4-10">
          <mxGeometry width="50" height="50" relative="1" as="geometry">
            <mxPoint x="740" y="498" as="sourcePoint" />
            <mxPoint x="820" y="544" as="targetPoint" />
          </mxGeometry>
        </mxCell>
        <mxCell id="dFO8RleyW5rbLTaIUvb4-18" value="" style="endArrow=none;html=1;entryX=0;entryY=0.5;entryDx=0;entryDy=0;exitX=1;exitY=0.5;exitDx=0;exitDy=0;" edge="1" parent="1" source="dFO8RleyW5rbLTaIUvb4-6" target="dFO8RleyW5rbLTaIUvb4-9">
          <mxGeometry width="50" height="50" relative="1" as="geometry">
            <mxPoint x="750" y="508" as="sourcePoint" />
            <mxPoint x="830" y="554" as="targetPoint" />
          </mxGeometry>
        </mxCell>
        <mxCell id="dFO8RleyW5rbLTaIUvb4-19" value="" style="endArrow=none;html=1;entryX=0;entryY=0.5;entryDx=0;entryDy=0;exitX=1;exitY=0.5;exitDx=0;exitDy=0;" edge="1" parent="1" source="dFO8RleyW5rbLTaIUvb4-6" target="dFO8RleyW5rbLTaIUvb4-7">
          <mxGeometry width="50" height="50" relative="1" as="geometry">
            <mxPoint x="790" y="224" as="sourcePoint" />
            <mxPoint x="870" y="270" as="targetPoint" />
          </mxGeometry>
        </mxCell>
        <mxCell id="dFO8RleyW5rbLTaIUvb4-20" value="" style="endArrow=none;html=1;entryX=1;entryY=0.5;entryDx=0;entryDy=0;exitX=0;exitY=0.5;exitDx=0;exitDy=0;" edge="1" parent="1" source="dFO8RleyW5rbLTaIUvb4-11" target="dFO8RleyW5rbLTaIUvb4-12">
          <mxGeometry width="50" height="50" relative="1" as="geometry">
            <mxPoint x="705" y="48" as="sourcePoint" />
            <mxPoint x="315" y="-16" as="targetPoint" />
          </mxGeometry>
        </mxCell>
        <mxCell id="dFO8RleyW5rbLTaIUvb4-21" value="" style="endArrow=none;html=1;entryX=0.5;entryY=0;entryDx=0;entryDy=0;exitX=0.5;exitY=1;exitDx=0;exitDy=0;" edge="1" parent="1" source="dFO8RleyW5rbLTaIUvb4-1" target="dFO8RleyW5rbLTaIUvb4-2">
          <mxGeometry width="50" height="50" relative="1" as="geometry">
            <mxPoint x="350" y="484" as="sourcePoint" />
            <mxPoint x="270" y="520" as="targetPoint" />
          </mxGeometry>
        </mxCell>
        <mxCell id="dFO8RleyW5rbLTaIUvb4-22" value="" style="endArrow=none;html=1;entryX=0.5;entryY=0;entryDx=0;entryDy=0;exitX=0.5;exitY=1;exitDx=0;exitDy=0;" edge="1" parent="1" source="dFO8RleyW5rbLTaIUvb4-1" target="dFO8RleyW5rbLTaIUvb4-4">
          <mxGeometry width="50" height="50" relative="1" as="geometry">
            <mxPoint x="313.75" y="204" as="sourcePoint" />
            <mxPoint x="180" y="174" as="targetPoint" />
          </mxGeometry>
        </mxCell>
        <mxCell id="dFO8RleyW5rbLTaIUvb4-23" value="" style="endArrow=none;html=1;entryX=0.5;entryY=0;entryDx=0;entryDy=0;exitX=0.5;exitY=1;exitDx=0;exitDy=0;" edge="1" parent="1" source="dFO8RleyW5rbLTaIUvb4-1" target="dFO8RleyW5rbLTaIUvb4-5">
          <mxGeometry width="50" height="50" relative="1" as="geometry">
            <mxPoint x="323.75" y="214" as="sourcePoint" />
            <mxPoint x="190" y="184" as="targetPoint" />
          </mxGeometry>
        </mxCell>
        <mxCell id="dFO8RleyW5rbLTaIUvb4-24" value="" style="shape=link;html=1;rounded=0;entryX=1;entryY=0.5;entryDx=0;entryDy=0;exitX=0;exitY=0.5;exitDx=0;exitDy=0;" edge="1" parent="1" source="dFO8RleyW5rbLTaIUvb4-3" target="dFO8RleyW5rbLTaIUvb4-1">
          <mxGeometry relative="1" as="geometry">
            <mxPoint x="460" y="250" as="sourcePoint" />
            <mxPoint x="620" y="250" as="targetPoint" />
          </mxGeometry>
        </mxCell>
        <mxCell id="dFO8RleyW5rbLTaIUvb4-25" value="M" style="resizable=0;html=1;align=left;verticalAlign=bottom;" connectable="0" vertex="1" parent="dFO8RleyW5rbLTaIUvb4-24">
          <mxGeometry x="-1" relative="1" as="geometry">
            <mxPoint x="-10" as="offset" />
          </mxGeometry>
        </mxCell>
        <mxCell id="dFO8RleyW5rbLTaIUvb4-27" value="" style="shape=link;html=1;rounded=0;exitX=0;exitY=0.5;exitDx=0;exitDy=0;entryX=1;entryY=0.5;entryDx=0;entryDy=0;" edge="1" parent="1" source="dFO8RleyW5rbLTaIUvb4-6" target="dFO8RleyW5rbLTaIUvb4-3">
          <mxGeometry relative="1" as="geometry">
            <mxPoint x="510" y="170" as="sourcePoint" />
            <mxPoint x="670" y="170" as="targetPoint" />
          </mxGeometry>
        </mxCell>
        <mxCell id="dFO8RleyW5rbLTaIUvb4-28" value="N" style="resizable=0;html=1;align=right;verticalAlign=bottom;" connectable="0" vertex="1" parent="dFO8RleyW5rbLTaIUvb4-27">
          <mxGeometry x="1" relative="1" as="geometry" />
        </mxCell>
        <mxCell id="dFO8RleyW5rbLTaIUvb4-29" value="&lt;font style=&quot;font-size: 18px&quot;&gt;WRITE&lt;/font&gt;" style="rhombus;whiteSpace=wrap;html=1;" vertex="1" parent="1">
          <mxGeometry x="430" y="66" width="160" height="96" as="geometry" />
        </mxCell>
        <mxCell id="dFO8RleyW5rbLTaIUvb4-30" value="" style="shape=link;html=1;rounded=0;entryX=1;entryY=0.5;entryDx=0;entryDy=0;exitX=0;exitY=0.5;exitDx=0;exitDy=0;" edge="1" parent="1" source="dFO8RleyW5rbLTaIUvb4-29" target="dFO8RleyW5rbLTaIUvb4-11">
          <mxGeometry relative="1" as="geometry">
            <mxPoint x="446.25" y="84" as="sourcePoint" />
            <mxPoint x="380" y="84" as="targetPoint" />
          </mxGeometry>
        </mxCell>
        <mxCell id="dFO8RleyW5rbLTaIUvb4-31" value="M" style="resizable=0;html=1;align=left;verticalAlign=bottom;" connectable="0" vertex="1" parent="dFO8RleyW5rbLTaIUvb4-30">
          <mxGeometry x="-1" relative="1" as="geometry">
            <mxPoint x="-10" as="offset" />
          </mxGeometry>
        </mxCell>
        <mxCell id="dFO8RleyW5rbLTaIUvb4-32" value="" style="shape=link;html=1;rounded=0;entryX=1;entryY=0.5;entryDx=0;entryDy=0;exitX=0;exitY=0;exitDx=0;exitDy=0;" edge="1" parent="1" source="dFO8RleyW5rbLTaIUvb4-6" target="dFO8RleyW5rbLTaIUvb4-29">
          <mxGeometry relative="1" as="geometry">
            <mxPoint x="660" y="194" as="sourcePoint" />
            <mxPoint x="600" y="234" as="targetPoint" />
          </mxGeometry>
        </mxCell>
        <mxCell id="dFO8RleyW5rbLTaIUvb4-33" value="N" style="resizable=0;html=1;align=right;verticalAlign=bottom;" connectable="0" vertex="1" parent="dFO8RleyW5rbLTaIUvb4-32">
          <mxGeometry x="1" relative="1" as="geometry" />
        </mxCell>
        <mxCell id="dFO8RleyW5rbLTaIUvb4-34" value="&lt;font style=&quot;font-size: 18px&quot;&gt;HAVE&lt;/font&gt;" style="rhombus;whiteSpace=wrap;html=1;" vertex="1" parent="1">
          <mxGeometry x="640" y="300" width="160" height="96" as="geometry" />
        </mxCell>
        <mxCell id="dFO8RleyW5rbLTaIUvb4-35" value="" style="shape=link;html=1;rounded=0;exitX=0.5;exitY=0;exitDx=0;exitDy=0;entryX=0.5;entryY=1;entryDx=0;entryDy=0;" edge="1" parent="1" source="dFO8RleyW5rbLTaIUvb4-13" target="dFO8RleyW5rbLTaIUvb4-34">
          <mxGeometry relative="1" as="geometry">
            <mxPoint x="410" y="420" as="sourcePoint" />
            <mxPoint x="570" y="420" as="targetPoint" />
          </mxGeometry>
        </mxCell>
        <mxCell id="dFO8RleyW5rbLTaIUvb4-36" value="N" style="resizable=0;html=1;align=right;verticalAlign=bottom;" connectable="0" vertex="1" parent="dFO8RleyW5rbLTaIUvb4-35">
          <mxGeometry x="1" relative="1" as="geometry">
            <mxPoint x="-10" y="14" as="offset" />
          </mxGeometry>
        </mxCell>
        <mxCell id="dFO8RleyW5rbLTaIUvb4-37" value="" style="endArrow=none;html=1;rounded=0;exitX=0.5;exitY=1;exitDx=0;exitDy=0;entryX=0.5;entryY=0;entryDx=0;entryDy=0;" edge="1" parent="1" source="dFO8RleyW5rbLTaIUvb4-6" target="dFO8RleyW5rbLTaIUvb4-34">
          <mxGeometry relative="1" as="geometry">
            <mxPoint x="410" y="420" as="sourcePoint" />
            <mxPoint x="570" y="420" as="targetPoint" />
          </mxGeometry>
        </mxCell>
        <mxCell id="dFO8RleyW5rbLTaIUvb4-38" value="1" style="resizable=0;html=1;align=right;verticalAlign=bottom;" connectable="0" vertex="1" parent="dFO8RleyW5rbLTaIUvb4-37">
          <mxGeometry x="1" relative="1" as="geometry" />
        </mxCell>
        <mxCell id="dFO8RleyW5rbLTaIUvb4-41" value="&lt;span style=&quot;border-bottom: 1px dotted&quot;&gt;&lt;font style=&quot;font-size: 18px&quot;&gt;Copy_number&lt;/font&gt;&lt;/span&gt;" style="ellipse;whiteSpace=wrap;html=1;align=center;" vertex="1" parent="1">
          <mxGeometry x="655" y="520" width="130" height="40" as="geometry" />
        </mxCell>
        <mxCell id="dFO8RleyW5rbLTaIUvb4-45" value="&lt;font style=&quot;font-size: 18px&quot;&gt;Availability&lt;/font&gt;" style="ellipse;whiteSpace=wrap;html=1;" vertex="1" parent="1">
          <mxGeometry x="450" y="360" width="120" height="80" as="geometry" />
        </mxCell>
        <mxCell id="dFO8RleyW5rbLTaIUvb4-46" value="" style="endArrow=none;html=1;entryX=0.5;entryY=1;entryDx=0;entryDy=0;exitX=0.5;exitY=0;exitDx=0;exitDy=0;" edge="1" parent="1" source="dFO8RleyW5rbLTaIUvb4-45" target="dFO8RleyW5rbLTaIUvb4-3">
          <mxGeometry width="50" height="50" relative="1" as="geometry">
            <mxPoint x="490" y="280" as="sourcePoint" />
            <mxPoint x="540" y="230" as="targetPoint" />
          </mxGeometry>
        </mxCell>
        <mxCell id="dFO8RleyW5rbLTaIUvb4-47" value="&lt;font style=&quot;font-size: 18px&quot;&gt;Number_of_copy&lt;/font&gt;" style="ellipse;whiteSpace=wrap;html=1;align=center;dashed=1;" vertex="1" parent="1">
          <mxGeometry x="830" y="440" width="170" height="70" as="geometry" />
        </mxCell>
        <mxCell id="dFO8RleyW5rbLTaIUvb4-48" value="" style="endArrow=none;html=1;entryX=0;entryY=0.5;entryDx=0;entryDy=0;exitX=1;exitY=0.5;exitDx=0;exitDy=0;" edge="1" parent="1" source="dFO8RleyW5rbLTaIUvb4-6" target="dFO8RleyW5rbLTaIUvb4-47">
          <mxGeometry width="50" height="50" relative="1" as="geometry">
            <mxPoint x="790" y="233.9999999999999" as="sourcePoint" />
            <mxPoint x="840" y="384" as="targetPoint" />
          </mxGeometry>
        </mxCell>
      </root>
    </mxGraphModel>
  </diagram>
</mxfile>
